<svg width="21" height="20" viewBox="0 0 21 20" fill="none" xmlns="http://www.w3.org/2000/svg">
<path fill-rule="evenodd" clip-rule="evenodd" d="M4.3277 5.3474L4.9307 12.5194C4.9747 13.0714 5.4257 13.4854 5.9767 13.4854H5.9807H16.8917H16.8937C17.4147 13.4854 17.8597 13.0974 17.9337 12.5824L18.8837 6.0234C18.9057 5.8674 18.8667 5.7114 18.7717 5.5854C18.6777 5.4584 18.5397 5.3764 18.3837 5.3544C18.1747 5.3624 9.5017 5.3504 4.3277 5.3474ZM5.9747 14.9854C4.6577 14.9854 3.5427 13.9574 3.4357 12.6424L2.5197 1.7484L1.0127 1.4884C0.6037 1.4164 0.3307 1.0294 0.4007 0.620395C0.4727 0.211395 0.8677 -0.0546045 1.2677 0.00939549L3.3477 0.369395C3.6827 0.428396 3.9377 0.706396 3.9667 1.0464L4.2017 3.8474C18.4777 3.8534 18.5237 3.8604 18.5927 3.8684C19.1497 3.9494 19.6397 4.2404 19.9737 4.6884C20.3077 5.1354 20.4477 5.6864 20.3677 6.2384L19.4187 12.7964C19.2397 14.0444 18.1557 14.9854 16.8957 14.9854H16.8907H5.9827H5.9747Z" fill="#8B8BA1"/>
<path fill-rule="evenodd" clip-rule="evenodd" d="M15.2876 9.0437H12.5156C12.1006 9.0437 11.7656 8.7077 11.7656 8.2937C11.7656 7.8797 12.1006 7.5437 12.5156 7.5437H15.2876C15.7016 7.5437 16.0376 7.8797 16.0376 8.2937C16.0376 8.7077 15.7016 9.0437 15.2876 9.0437Z" fill="#8B8BA1"/>
<path fill-rule="evenodd" clip-rule="evenodd" d="M5.5445 17.7019C5.8455 17.7019 6.0885 17.9449 6.0885 18.2459C6.0885 18.5469 5.8455 18.7909 5.5445 18.7909C5.2425 18.7909 4.9995 18.5469 4.9995 18.2459C4.9995 17.9449 5.2425 17.7019 5.5445 17.7019Z" fill="#8B8BA1"/>
<mask id="mask0_114_29" style="mask-type:alpha" maskUnits="userSpaceOnUse" x="4" y="17" width="3" height="2">
<path fill-rule="evenodd" clip-rule="evenodd" d="M4.999 18.2455C4.999 18.5475 5.242 18.7915 5.545 18.7915C5.846 18.7915 6.089 18.5475 6.089 18.2455C6.089 17.9445 5.846 17.7015 5.545 17.7015C5.242 17.7015 4.999 17.9445 4.999 18.2455Z" fill="white"/>
</mask>
<g mask="url(#mask0_114_29)">
<path fill-rule="evenodd" clip-rule="evenodd" d="M0 23.7905H11.089V12.7015H0V23.7905Z" fill="#8B8BA1"/>
</g>
<path fill-rule="evenodd" clip-rule="evenodd" d="M5.5435 18.0408C5.4305 18.0408 5.3385 18.1328 5.3385 18.2458C5.3385 18.4728 5.7495 18.4728 5.7495 18.2458C5.7495 18.1328 5.6565 18.0408 5.5435 18.0408ZM5.5435 19.5408C4.8295 19.5408 4.2495 18.9598 4.2495 18.2458C4.2495 17.5318 4.8295 16.9518 5.5435 16.9518C6.2575 16.9518 6.8385 17.5318 6.8385 18.2458C6.8385 18.9598 6.2575 19.5408 5.5435 19.5408Z" fill="#8B8BA1"/>
<path fill-rule="evenodd" clip-rule="evenodd" d="M16.8248 17.7019C17.1258 17.7019 17.3698 17.9449 17.3698 18.2459C17.3698 18.5469 17.1258 18.7909 16.8248 18.7909C16.5228 18.7909 16.2798 18.5469 16.2798 18.2459C16.2798 17.9449 16.5228 17.7019 16.8248 17.7019Z" fill="#8B8BA1"/>
<mask id="mask1_114_29" style="mask-type:alpha" maskUnits="userSpaceOnUse" x="16" y="17" width="2" height="2">
<path fill-rule="evenodd" clip-rule="evenodd" d="M16.28 18.2455C16.28 18.5475 16.523 18.7915 16.825 18.7915C17.125 18.7915 17.37 18.5475 17.37 18.2455C17.37 17.9445 17.125 17.7015 16.825 17.7015C16.523 17.7015 16.28 17.9445 16.28 18.2455Z" fill="white"/>
</mask>
<g mask="url(#mask1_114_29)">
<path fill-rule="evenodd" clip-rule="evenodd" d="M11.28 23.7905H22.37V12.7015H11.28V23.7905Z" fill="#8B8BA1"/>
</g>
<path fill-rule="evenodd" clip-rule="evenodd" d="M16.8238 18.0408C16.7118 18.0408 16.6198 18.1328 16.6198 18.2458C16.6208 18.4748 17.0308 18.4728 17.0298 18.2458C17.0298 18.1328 16.9368 18.0408 16.8238 18.0408ZM16.8238 19.5408C16.1098 19.5408 15.5298 18.9598 15.5298 18.2458C15.5298 17.5318 16.1098 16.9518 16.8238 16.9518C17.5388 16.9518 18.1198 17.5318 18.1198 18.2458C18.1198 18.9598 17.5388 19.5408 16.8238 19.5408Z" fill="#8B8BA1"/>
</svg>
