<svg width="18" height="18" viewBox="0 0 18 18" fill="none" xmlns="http://www.w3.org/2000/svg">
<path d="M13.4388 10.7401C13.2445 10.9283 13.1553 11.2006 13.1995 11.4676L13.8663 15.1576C13.9225 15.4703 13.7905 15.7868 13.5288 15.9676C13.2723 16.1551 12.931 16.1776 12.6513 16.0276L9.32953 14.2951C9.21403 14.2336 9.08578 14.2006 8.95453 14.1968H8.75128C8.68078 14.2073 8.61178 14.2298 8.54878 14.2643L5.22628 16.0051C5.06203 16.0876 4.87603 16.1168 4.69378 16.0876C4.24978 16.0036 3.95353 15.5806 4.02628 15.1343L4.69378 11.4443C4.73803 11.1751 4.64878 10.9013 4.45453 10.7101L1.74628 8.0851C1.51978 7.86535 1.44103 7.53535 1.54453 7.2376C1.64503 6.9406 1.90153 6.72385 2.21128 6.6751L5.93878 6.13435C6.22228 6.1051 6.47128 5.9326 6.59878 5.6776L8.24128 2.3101C8.28028 2.2351 8.33053 2.1661 8.39128 2.1076L8.45878 2.0551C8.49403 2.0161 8.53453 1.98385 8.57953 1.9576L8.66128 1.9276L8.78878 1.8751H9.10453C9.38653 1.90435 9.63478 2.0731 9.76453 2.3251L11.4288 5.6776C11.5488 5.92285 11.782 6.0931 12.0513 6.13435L15.7788 6.6751C16.0938 6.7201 16.357 6.9376 16.4613 7.2376C16.5595 7.53835 16.4748 7.86835 16.2438 8.0851L13.4388 10.7401Z" fill="#F59C4C"/>
</svg>
