<svg width="28" height="17" viewBox="0 0 28 17" fill="none" xmlns="http://www.w3.org/2000/svg">
<path d="M26.9231 2.21739H1.07692C0.488205 2.21739 0 1.71478 0 1.1087C0 0.502609 0.488205 0 1.07692 0H26.9231C27.5118 0 28 0.502609 28 1.1087C28 1.71478 27.5118 2.21739 26.9231 2.21739Z" fill="#222020"/>
<path d="M26.9231 9.60869H1.07692C0.488205 9.60869 0 9.10608 0 8.49999C0 7.8939 0.488205 7.3913 1.07692 7.3913H26.9231C27.5118 7.3913 28 7.8939 28 8.49999C28 9.10608 27.5118 9.60869 26.9231 9.60869Z" fill="#222020"/>
<path d="M26.9231 17H1.07692C0.488205 17 0 16.4974 0 15.8913C0 15.2852 0.488205 14.7826 1.07692 14.7826H26.9231C27.5118 14.7826 28 15.2852 28 15.8913C28 16.4974 27.5118 17 26.9231 17Z" fill="#222020"/>
</svg>
