<svg width="20" height="21" viewBox="0 0 20 21" fill="none" xmlns="http://www.w3.org/2000/svg">
<mask id="mask0_114_50" style="mask-type:alpha" maskUnits="userSpaceOnUse" x="0" y="0" width="20" height="21">
<path fill-rule="evenodd" clip-rule="evenodd" d="M0 0.000488281H19.2849V20.7215H0V0.000488281Z" fill="white"/>
</mask>
<g mask="url(#mask0_114_50)">
<path fill-rule="evenodd" clip-rule="evenodd" d="M5.2022 15.4405C5.4312 15.4405 5.6602 15.4695 5.8842 15.5295C6.5602 15.7115 7.1472 16.1635 7.4952 16.7705C7.7212 17.1515 7.8462 17.5965 7.8502 18.0505C7.8502 18.7005 8.3722 19.2215 9.0142 19.2215H10.2672C10.9062 19.2215 11.4282 18.7035 11.4312 18.0645C11.4272 17.3585 11.7032 16.6875 12.2082 16.1825C12.7062 15.6845 13.4022 15.3855 14.0982 15.4055C14.5542 15.4165 14.9932 15.5395 15.3802 15.7595C15.9372 16.0785 16.6482 15.8885 16.9702 15.3385L17.6342 14.2315C17.7822 13.9765 17.8252 13.6565 17.7462 13.3615C17.6682 13.0665 17.4722 12.8105 17.2082 12.6595C16.5902 12.3035 16.1492 11.7295 15.9662 11.0415C15.7852 10.3665 15.8842 9.62949 16.2372 9.02249C16.4672 8.62249 16.8042 8.28549 17.2082 8.05349C17.7502 7.73649 17.9402 7.02749 17.6252 6.47549C17.6122 6.45349 17.6002 6.43049 17.5902 6.40649L17.0042 5.39049C16.6852 4.83549 15.9752 4.64449 15.4182 4.96149C14.8162 5.31749 14.1002 5.41949 13.4122 5.23849C12.7252 5.06049 12.1492 4.62549 11.7902 4.01149C11.5602 3.62749 11.4352 3.18049 11.4312 2.72549C11.4402 2.38349 11.3202 2.07649 11.1022 1.85149C10.8852 1.62749 10.5802 1.50049 10.2672 1.50049H9.0142C8.7042 1.50049 8.4142 1.62149 8.1952 1.83949C7.9772 2.05849 7.8582 2.34949 7.8602 2.65949C7.8392 4.12149 6.6442 5.29849 5.1972 5.29849C4.7332 5.29349 4.2862 5.16849 3.8982 4.93649C3.3532 4.62649 2.6412 4.81749 2.3222 5.37249L1.6452 6.48549C1.3352 7.02349 1.5252 7.73449 2.0772 8.05549C2.8962 8.52949 3.4072 9.41349 3.4072 10.3615C3.4072 11.3095 2.8962 12.1925 2.0752 12.6675C1.5262 12.9855 1.3362 13.6925 1.6542 14.2425L2.2852 15.3305C2.4412 15.6115 2.6962 15.8145 2.9912 15.8975C3.2852 15.9795 3.6092 15.9445 3.8792 15.7945C4.2762 15.5615 4.7382 15.4405 5.2022 15.4405ZM10.2672 20.7215H9.0142C7.5452 20.7215 6.3502 19.5275 6.3502 18.0585C6.3482 17.8775 6.2962 17.6895 6.1992 17.5265C6.0422 17.2525 5.7882 17.0565 5.4952 16.9785C5.2042 16.9005 4.8852 16.9435 4.6232 17.0955C3.9952 17.4455 3.2562 17.5305 2.5802 17.3405C1.9052 17.1495 1.3222 16.6855 0.980198 16.0705L0.355198 14.9935C-0.375802 13.7255 0.0591977 12.1005 1.3252 11.3685C1.6842 11.1615 1.9072 10.7755 1.9072 10.3615C1.9072 9.94749 1.6842 9.56049 1.3252 9.35349C0.0581977 8.61749 -0.375802 6.98849 0.354198 5.72049L1.0322 4.60749C1.7532 3.35349 3.3832 2.91149 4.6542 3.64149C4.8272 3.74449 5.0152 3.79649 5.2062 3.79849C5.8292 3.79849 6.3502 3.28449 6.3602 2.65249C6.3562 1.95549 6.6312 1.28649 7.1322 0.781488C7.6352 0.277488 8.3032 0.000488281 9.0142 0.000488281H10.2672C10.9832 0.000488281 11.6792 0.294488 12.1782 0.805488C12.6762 1.31949 12.9512 2.02449 12.9302 2.73949C12.9322 2.90049 12.9852 3.08649 13.0812 3.24949C13.2402 3.51949 13.4912 3.70949 13.7892 3.78749C14.0872 3.86149 14.3992 3.82149 14.6642 3.66449C15.9442 2.93349 17.5732 3.37149 18.3042 4.64149L18.9272 5.72049C18.9432 5.74949 18.9572 5.77749 18.9692 5.80649C19.6312 7.05749 19.1892 8.63249 17.9592 9.35149C17.7802 9.45449 17.6352 9.59849 17.5352 9.77249C17.3802 10.0415 17.3372 10.3615 17.4152 10.6555C17.4952 10.9555 17.6862 11.2045 17.9552 11.3585C18.5622 11.7075 19.0152 12.2955 19.1962 12.9745C19.3772 13.6525 19.2782 14.3885 18.9252 14.9955L18.2612 16.1015C17.5302 17.3575 15.9012 17.7925 14.6342 17.0605C14.4652 16.9635 14.2702 16.9105 14.0762 16.9055H14.0702C13.7812 16.9055 13.4842 17.0285 13.2682 17.2435C13.0492 17.4625 12.9292 17.7545 12.9312 18.0645C12.9242 19.5335 11.7292 20.7215 10.2672 20.7215Z" fill="#8B8BA1"/>
</g>
<path fill-rule="evenodd" clip-rule="evenodd" d="M9.6451 8.47458C8.6051 8.47458 7.7591 9.32158 7.7591 10.3616C7.7591 11.4016 8.6051 12.2466 9.6451 12.2466C10.6851 12.2466 11.5311 11.4016 11.5311 10.3616C11.5311 9.32158 10.6851 8.47458 9.6451 8.47458ZM9.6451 13.7466C7.7781 13.7466 6.2591 12.2286 6.2591 10.3616C6.2591 8.49458 7.7781 6.97458 9.6451 6.97458C11.5121 6.97458 13.0311 8.49458 13.0311 10.3616C13.0311 12.2286 11.5121 13.7466 9.6451 13.7466Z" fill="#8B8BA1"/>
</svg>
